<svg width="29" height="20" viewBox="0 0 29 20" fill="none"
  xmlns="http://www.w3.org/2000/svg">
  <path fill-rule="evenodd" clip-rule="evenodd" d="M17.6055 10C17.6055 8.3232 16.2152 6.96384 14.5003 6.96384C12.7853 6.96384 11.3951 8.3232 11.3951 10C11.3951 11.6769 12.7853 13.0363 14.5003 13.0363C16.2152 13.0363 17.6055 11.6769 17.6055 10Z" fill="#5EE8AD"/>
  <!-- <path d="M20.6412 16.0367L20.6559 16.0239C22.3493 14.4288 23.3025 12.2642 23.3025 10.0052C23.3025 7.74921 22.3518 5.58742 20.6626 3.99289C20.5341 3.85438 20.3786 3.74256 20.2052 3.66405C20.0277 3.58357 19.8356 3.53856 19.6402 3.53163C19.4447 3.52451 19.2497 3.55561 19.0665 3.6231C18.8843 3.69006 18.7178 3.79263 18.5772 3.92458C18.4376 4.05555 18.3276 4.21376 18.2543 4.389C18.1815 4.56338 18.1477 4.75104 18.1553 4.93931C18.1629 5.12742 18.2118 5.31173 18.2985 5.48058C18.3835 5.64636 18.5032 5.79352 18.6495 5.91331C19.8021 7.00142 20.4475 8.4731 20.4475 10.0052C20.4475 11.5404 19.7996 13.0147 18.6428 14.1033L18.6293 14.1171C18.393 14.3763 18.268 14.7115 18.2819 15.0562C18.2959 15.4008 18.4477 15.7257 18.7037 15.9668C18.9596 16.2075 19.3007 16.3469 19.6585 16.3597C20.0161 16.3726 20.3671 16.258 20.6412 16.0367Z" fill="#5EE8AD"/>
  <path d="M24.744 19.6609L24.7552 19.651C27.472 17.0923 29 13.6212 29 10C29 6.37889 27.472 2.90784 24.7552 0.349103L24.744 0.339208C24.471 0.110787 24.1174 -0.00942356 23.7556 0.000681702C23.394 0.0106817 23.0481 0.150261 22.7895 0.393629C22.5306 0.637208 22.3787 0.966682 22.3677 1.31521C22.3569 1.66363 22.488 2.00131 22.7316 2.25921L22.7421 2.26973C24.9223 4.32194 26.145 7.10268 26.145 10C26.145 12.8974 24.9223 15.6782 22.7421 17.7304L22.7316 17.7409C22.488 17.9988 22.3569 18.3364 22.3677 18.6849C22.3787 19.0334 22.5306 19.3629 22.7895 19.6065C23.0481 19.8498 23.394 19.9894 23.7556 19.9994C24.1174 20.0095 24.471 19.8892 24.744 19.6609Z" fill="#5EE8AD"/>
  <path d="M8.39969 16.0239L8.4144 16.0367C8.68851 16.258 9.03951 16.3726 9.39718 16.3597C9.75496 16.3469 10.0961 16.2075 10.3519 15.9668C10.608 15.7257 10.7598 15.4008 10.7737 15.0562C10.7877 14.7115 10.6627 14.3763 10.4264 14.1171L10.4128 14.1033C9.25605 13.0147 8.60817 11.5404 8.60817 10.0052C8.60817 8.4731 9.25358 7.00142 10.4062 5.91331C10.5521 5.7941 10.6716 5.64682 10.7572 5.48058C10.8438 5.31224 10.8926 5.12768 10.9003 4.93931C10.9079 4.75104 10.8741 4.56338 10.8013 4.389C10.728 4.21376 10.618 4.05555 10.4785 3.92458C10.3379 3.79263 10.1714 3.69006 9.9891 3.6231C9.80597 3.55561 9.61096 3.52451 9.41544 3.53163C9.22002 3.53856 9.02796 3.58357 8.85048 3.66405C8.67708 3.74256 8.52152 3.85438 8.39303 3.99289C6.70383 5.58742 5.75317 7.74921 5.75317 10.0052C5.75317 12.2643 6.7063 14.4288 8.39969 16.0239Z" fill="#5EE8AD"/>
  <path d="M4.24474 19.651L4.25602 19.6609C4.52905 19.8892 4.88263 20.0095 5.24438 19.9994C5.60602 19.9894 5.95187 19.8498 6.2104 19.6065C6.46936 19.3629 6.62135 19.0334 6.6323 18.6849C6.64315 18.3364 6.512 17.9988 6.2684 17.7409L6.25799 17.7304C4.07761 15.6782 2.85489 12.8974 2.85489 10C2.85489 7.10278 4.07761 4.32194 6.25777 2.26973L6.2683 2.25921C6.5119 2.00131 6.64315 1.66373 6.63219 1.31521C6.62124 0.966787 6.46926 0.637313 6.2104 0.393629C5.95177 0.150261 5.60592 0.0106821 5.24427 0.000576798C4.88253 -0.0094232 4.52894 0.110892 4.25591 0.339103L4.24474 0.349103C1.52798 2.90784 0 6.37899 0 10C0 13.6211 1.52798 17.0923 4.24474 19.651Z" fill="#5EE8AD"/> -->
</svg>
